Format                           : Matroska
File size                        : 4.36 GiB
Duration                         : 2h 7mn
Overall bit rate                 : 4892 Kbps

Video
ID                               : 1
Format                           : AVC
Format/Info                      : Advanced Video Codec
Bit rate                         : 4268 Kbps
Width                            : 1920 pixels
Height                           : 800 pixels
Display aspect ratio             : 2.40:1
Frame rate                       : 25.000 fps
Color space                      : YUV
Chroma subsampling               : 4:2:0
Stream size                      : 3.87 GiB (89%)
Title                            : 1080p BluRay By Ashish7(wall.e)

Audio
ID                               : 2
Format                           : AC-3
Format/Info                      : Audio Coding 3
Bit rate                         : 448 Kbps
Channel(s)                       : 6 channels
Channel positions                : Front: L C R, Side: L R, LFE
Sampling rate                    : 48.0 KHz
Bit depth                        : 16 bits
Stream size                      : 409 MiB (9%)
Title                            : 5.1 Hindi Audio By Ashish7(wall.e)